<svg width="24" height="24" viewBox="0 0 24 24" fill="none" xmlns="http://www.w3.org/2000/svg">
<path d="M22.44 3.24006C22.44 2.78406 22.272 2.37606 21.936 2.06406C21.624 1.75206 21.192 1.56006 20.76 1.56006C20.328 1.56006 19.896 1.72806 19.56 2.06406L18.384 3.24006L17.88 2.73606C17.616 2.47206 17.256 2.30406 16.872 2.30406C16.488 2.30406 16.128 2.44806 15.864 2.73606L15.192 3.40806L15.024 3.24006C14.712 2.92806 14.28 2.73606 13.848 2.73606C13.416 2.73606 12.984 2.90406 12.648 3.24006C12.096 3.79206 12 4.65606 12.408 5.30406H11.568C10.92 5.30406 10.32 5.54406 9.86402 6.00006L2.25602 13.5841C1.32002 14.5201 1.32002 16.0321 2.25602 16.9681L7.00802 21.7201C7.46402 22.1761 8.06402 22.4161 8.71202 22.4161C9.36002 22.4161 9.96002 22.1761 10.416 21.7201L18 14.1601C18.456 13.7041 18.696 13.1041 18.696 12.4561V11.6161C18.96 11.7841 19.272 11.8561 19.584 11.8561C20.016 11.8561 20.448 11.6881 20.784 11.3761C21.432 10.7281 21.432 9.64806 20.784 9.00006L20.616 8.83206L21.288 8.16006C21.552 7.89606 21.72 7.53606 21.72 7.15206C21.72 6.76806 21.576 6.40806 21.288 6.14406L20.784 5.64006L21.96 4.46406C22.272 4.10406 22.44 3.69606 22.44 3.24006ZM17.304 13.4641L9.72002 21.0481C9.45602 21.3121 9.09602 21.4801 8.71202 21.4801C8.32802 21.4801 7.96802 21.3361 7.70402 21.0481L2.95202 16.2961C2.68802 16.0321 2.52002 15.6721 2.52002 15.2881C2.52002 14.9041 2.66402 14.5441 2.95202 14.2801L4.65602 15.9841C4.75202 16.0801 4.87202 16.1281 4.99202 16.1281C5.11202 16.1281 5.23202 16.0801 5.32802 15.9841C5.52002 15.7921 5.52002 15.5041 5.32802 15.3121L3.62402 13.6081L4.63202 12.6001L5.64002 13.6081C5.73602 13.7041 5.85602 13.7521 5.97602 13.7521C6.09602 13.7521 6.21602 13.7041 6.31202 13.6081C6.50402 13.4161 6.50402 13.1281 6.31202 12.9361L5.30402 11.9281L6.31202 10.9201L8.01602 12.6241C8.11202 12.7201 8.23202 12.7681 8.35202 12.7681C8.47202 12.7681 8.59202 12.7201 8.68802 12.6241C8.88002 12.4321 8.88002 12.1441 8.68802 11.9521L6.98402 10.2481L7.99202 9.24006L9.00002 10.2481C9.09602 10.3441 9.21602 10.3921 9.33602 10.3921C9.45602 10.3921 9.57602 10.3441 9.67202 10.2481C9.86402 10.0561 9.86402 9.76806 9.67202 9.57606L8.66402 8.56806L9.67202 7.56006L11.376 9.26406C11.472 9.36006 11.592 9.40806 11.712 9.40806C11.832 9.40806 11.952 9.36006 12.048 9.26406C12.24 9.07206 12.24 8.78406 12.048 8.59206L10.344 6.88806L10.464 6.76806C10.728 6.50406 11.088 6.33606 11.472 6.33606H13.2L17.664 10.8001V12.5281C17.736 12.8401 17.592 13.2001 17.304 13.4641ZM20.088 10.7041C19.8 10.9921 19.344 10.9921 19.08 10.7041L18.576 10.2001L13.8 5.44806L13.296 4.94406C13.008 4.65606 13.008 4.20006 13.296 3.93606C13.44 3.79206 13.608 3.72006 13.8 3.72006C13.992 3.72006 14.184 3.79206 14.304 3.93606L14.808 4.44006L19.56 9.19206L20.064 9.69606C20.352 9.96006 20.352 10.4161 20.088 10.7041ZM21.264 3.74406L19.752 5.28006C19.56 5.47206 19.56 5.76006 19.752 5.95206L20.592 6.79206C20.688 6.88806 20.736 7.00806 20.736 7.12806C20.736 7.24806 20.688 7.36806 20.592 7.46406L19.92 8.16006L15.84 4.08006L16.512 3.40806C16.704 3.21606 17.016 3.21606 17.184 3.40806L18.024 4.24806C18.216 4.44006 18.504 4.44006 18.696 4.24806L20.232 2.71206C20.496 2.44806 20.976 2.44806 21.24 2.71206C21.384 2.85606 21.456 3.02406 21.456 3.21606C21.48 3.43206 21.408 3.62406 21.264 3.74406Z" fill="#1C1D1D"/>
</svg>
